<svg xmlns="http://www.w3.org/2000/svg" width="6000" height="6000" viewBox="0 0 6000 6000">
  <defs>
    <style>
      .cls-1 {
        fill: #ff6900;
        fill-rule: evenodd;
        opacity: 0.5;
      }
    </style>
  </defs>
  <path id="Фигура_2_копия_3" data-name="Фигура 2 копия 3" class="cls-1" d="M4191.24,2544.29c418.63,140.88,35.67,1033.08-359.3,856.83S3772.6,2403.4,4191.24,2544.29ZM3550.4,1731.28c-459.61-66.7-657.76,904.13-198.14,970.84S4010.01,1797.98,3550.4,1731.28ZM1808.78,2547.29c-418.63,140.88-35.67,1033.08,359.3,856.83S2227.42,2406.4,1808.78,2547.29Zm639.33-815.82c459.35-66.67,657.38,903.7,198.03,970.37S1988.76,1798.14,2448.11,1731.47Zm553.35,2390.34c245.32,0,471.05,191.8,721.85,141.19s238.66-187.53,224.03-290.98c-56.29-397.97-511.84-917.93-949.02-917.93s-888.72,520.17-944.98,918.31c-14.63,103.49-26.76,240.47,223.93,291.1s476.33-141.25,721.54-141.25M1191.24-455.713c418.63,140.886,35.67,1033.084-359.3,856.836S772.6-596.6,1191.24-455.713ZM550.4-1268.72c-459.611-66.7-657.753,904.133-198.142,970.836S1010.01-1202.02,550.4-1268.72ZM-1191.22-452.713c-418.63,140.886-35.67,1033.084,359.3,856.836S-772.578-593.6-1191.22-452.713Zm639.331-815.817c459.352-66.67,657.383,903.7,198.031,970.366S-1011.24-1201.86-551.889-1268.53ZM1.465,1121.81c245.311,0,471.041,191.8,721.845,141.19s238.665-187.53,224.033-290.978C891.054,574.047,435.5,54.09-1.678,54.09S-890.4,574.261-946.665,972.4c-14.625,103.491-26.759,240.471,223.938,291.1s476.332-141.25,721.539-141.25M7191.23-455.713c418.65,140.886,35.68,1033.084-359.3,856.836S6772.59-596.6,7191.23-455.713ZM6550.39-1268.72c-459.62-66.7-657.76,904.133-198.15,970.836S7010-1202.02,6550.39-1268.72ZM4808.75-452.713c-418.64,140.886-35.67,1033.084,359.31,856.836S5227.4-593.6,4808.75-452.713Zm639.34-815.817c459.36-66.67,657.39,903.7,198.03,970.366S4988.73-1201.86,5448.09-1268.53Zm553.36,2390.34c245.31,0,471.05,191.8,721.85,141.19s238.67-187.53,224.04-290.978C6891.05,574.047,6435.49,54.09,5998.31,54.09s-888.73,520.171-945,918.309c-14.63,103.491-26.76,240.471,223.94,291.1s476.34-141.25,721.55-141.25M1191.21,5544.29c418.64,140.88,35.68,1033.08-359.294,856.83S772.575,5403.4,1191.21,5544.29ZM550.373,4731.28c-459.613-66.7-657.755,904.13-198.143,970.84S1009.99,4797.98,550.373,4731.28ZM-1191.25,5547.29c-418.64,140.88-35.67,1033.08,359.3,856.83S-772.607,5406.4-1191.25,5547.29Zm639.333-815.82c459.354-66.67,657.385,903.7,198.031,970.37S-1011.27,4798.14-551.917,4731.47ZM1.439,7121.81c245.311,0,471.043,191.8,721.847,141.19s238.666-187.53,224.034-290.98C891.031,6574.05,435.478,6054.09-1.7,6054.09s-888.724,520.17-944.989,918.31c-14.626,103.49-26.76,240.47,223.938,291.1s476.334-141.25,721.541-141.25M7191.23,5544.29c418.65,140.88,35.68,1033.08-359.3,856.83S6772.59,5403.4,7191.23,5544.29Zm-640.84-813.01c-459.62-66.7-657.77,904.13-198.15,970.84S7010,4797.98,6550.39,4731.28ZM4808.75,5547.29c-418.65,140.88-35.68,1033.08,359.3,856.83S5227.39,5406.4,4808.75,5547.29Zm639.33-815.82c459.36-66.67,657.39,903.7,198.04,970.37S4988.72,4798.14,5448.08,4731.47Zm553.36,2390.34c245.32,0,471.05,191.8,721.86,141.19s238.67-187.53,224.04-290.98c-56.29-397.97-511.85-917.93-949.04-917.93s-888.73,520.17-945,918.31c-14.62,103.49-26.76,240.47,223.94,291.1s476.34-141.25,721.55-141.25"/>
</svg>
